<svg viewBox="0 0 32 32" xmlns="http://www.w3.org/2000/svg"><g data-name="Winter Alarm"><path d="M9 28a1 1 0 0 1-.71-.29 1 1 0 0 1 0-1.42l3-2.95a1 1 0 0 1 1.41 1.41l-2.95 3A1 1 0 0 1 9 28ZM23 28a1 1 0 0 1-.71-.29l-2.95-3a1 1 0 0 1 1.41-1.41l3 2.95a1 1 0 0 1 0 1.42A1 1 0 0 1 23 28ZM9.16 11.16a1 1 0 0 1-.71-.29L6.29 8.71a1 1 0 1 1 1.42-1.42l2.16 2.16a1 1 0 0 1 0 1.42 1 1 0 0 1-.71.29ZM22.84 11.16a1 1 0 0 1-.71-.29 1 1 0 0 1 0-1.42l2.16-2.16a1 1 0 1 1 1.42 1.42l-2.16 2.16a1 1 0 0 1-.71.29Z" fill="#d9e1e8" class="fill-d9e1e8"></path><circle cx="16" cy="16" r="10" fill="#004cfd" class="fill-2893ea"></circle><path d="M20 15h-1.59l1.13-1.12a1 1 0 0 0-1.42-1.42L17 13.59V12a1 1 0 0 0-2 0v1.59l-1.12-1.13a1 1 0 0 0-1.42 1.42L13.59 15H12a1 1 0 0 0 0 2h1.59l-1.13 1.12a1 1 0 0 0 0 1.42 1 1 0 0 0 .71.29 1 1 0 0 0 .71-.29L15 18.41V20a1 1 0 0 0 2 0v-1.59l1.12 1.13a1 1 0 0 0 .71.29 1 1 0 0 0 .71-.29 1 1 0 0 0 0-1.42L18.41 17H20a1 1 0 0 0 0-2Z" fill="#1a76d3" class="fill-1a76d3"></path><path d="M9.71 5.29a3.83 3.83 0 0 0-5.42 5.42 1 1 0 0 0 1.42 0l4-4a1 1 0 0 0 0-1.42ZM27.71 5.29a3.84 3.84 0 0 0-5.42 0 1 1 0 0 0 0 1.42l4 4a1 1 0 0 0 1.42 0 3.84 3.84 0 0 0 0-5.42Z" fill="#004cfd" class="fill-2893ea"></path></g></svg>