<svg viewBox="0 0 32 32" xmlns="http://www.w3.org/2000/svg"><path d="M7.14 13.36 7.38 11a1 1 0 0 0-.89-1.09 1 1 0 0 0-1.1.89l-.18 1.82-1.82-.22a1 1 0 0 0-1.1.89 1 1 0 0 0 .9 1.1l2.4.24 1.84 2.25a1 1 0 0 0 .78.37A1 1 0 0 0 9 15.62ZM28.61 12.4l-1.82.18-.18-1.82a1 1 0 0 0-2 .2l.24 2.4L23 15.62a1 1 0 0 0 .77 1.63 1 1 0 0 0 .78-.37l1.84-2.25 2.4-.24a1 1 0 0 0 .9-1.1 1 1 0 0 0-1.08-.89Z" fill="#004cfd" class="fill-1a76d3"></path><path d="M20.86 12.2a1 1 0 0 0-1.2.2A5 5 0 0 1 16 14a4.74 4.74 0 0 1-1.35-.19 4.92 4.92 0 0 1-2.31-1.41 1 1 0 0 0-1.2-.2A9.45 9.45 0 0 0 6 20.5 9.77 9.77 0 0 0 16 30a9.77 9.77 0 0 0 10-9.5 9.45 9.45 0 0 0-5.14-8.3Z" fill="#004cfd" class="fill-1a76d3"></path><circle cx="16" cy="9" r="7" fill="#2893ea" class="fill-2893ea"></circle><path d="M16 13a3 3 0 0 1-2.59-1.5 1 1 0 1 1 1.72-1 1 1 0 0 0 1.74 0 1 1 0 1 1 1.72 1A3 3 0 0 1 16 13ZM14 9a1 1 0 0 1-1-1 1 1 0 0 1 2 0 1 1 0 0 1-1 1ZM18 9a1 1 0 1 1 0-2 1 1 0 0 1 1 1 1 1 0 0 1-1 1Z" fill="#004cfd" class="fill-1a76d3"></path></svg>