<svg viewBox="0 0 32 32" xmlns="http://www.w3.org/2000/svg"><path d="M23 24a1 1 0 0 1-.24-2l3.24-.78V19h-3a1 1 0 0 1 0-2h4a1 1 0 0 1 1 1v4a1 1 0 0 1-.76 1l-4 1a1 1 0 0 1-.24 0Z" fill="#004cfd" class="fill-1a76d3"></path><path d="M24 15v8a7 7 0 0 1-7 7h-6a7 7 0 0 1-7-7v-8a1 1 0 0 1 1-1h18a1 1 0 0 1 1 1Z" fill="#004cfd" class="fill-2893ea"></path><path d="M19.45 19.11 18 18.38V14h-2v4.38l-1.45.73A1 1 0 0 0 14 20v2a1 1 0 0 0 1 1h4a1 1 0 0 0 1-1v-2a1 1 0 0 0-.55-.89ZM18 21h-2v-.38l1-.5 1 .5ZM7.36 12a1 1 0 0 1-1-1 2.69 2.69 0 0 1 .92-2c.3-.32.36-.4.36-.64s-.08-.36-.36-.67a2.69 2.69 0 0 1 0-4.05c.28-.3.36-.39.36-.64a1 1 0 0 1 2 0 2.72 2.72 0 0 1-.92 2c-.28.3-.36.38-.36.64s.08.34.36.64a2.69 2.69 0 0 1 0 4.05c-.3.32-.36.4-.36.64a1 1 0 0 1-1 1.03ZM13.36 12a1 1 0 0 1-1-1 2.69 2.69 0 0 1 .92-2c.3-.32.36-.4.36-.64s-.08-.35-.36-.65a2.69 2.69 0 0 1 0-4.05c.28-.3.36-.39.36-.64a1 1 0 0 1 2 0 2.72 2.72 0 0 1-.92 2c-.28.3-.36.38-.36.64s.08.34.36.64a2.69 2.69 0 0 1 0 4.05c-.3.32-.36.4-.36.64a1 1 0 0 1-1 1.01ZM19.36 12a1 1 0 0 1-1-1 2.69 2.69 0 0 1 .92-2c.3-.32.36-.4.36-.64s-.08-.35-.36-.65a2.69 2.69 0 0 1 0-4.05c.28-.3.36-.39.36-.64a1 1 0 0 1 2 0 2.72 2.72 0 0 1-.92 2c-.28.3-.36.38-.36.64s.08.34.36.64a2.69 2.69 0 0 1 0 4.05c-.3.32-.36.4-.36.64a1 1 0 0 1-1 1.01Z" fill="#004cfd" class="fill-1a76d3"></path></svg>