<svg viewBox="0 0 32 32" xmlns="http://www.w3.org/2000/svg"><path d="M25 2a7.15 7.15 0 0 0-6 2.8A7.15 7.15 0 0 0 13 2C9.59 2 9.32 3.66 9.32 4.17 9.32 6.42 13.3 8 19 8s9.68-1.58 9.68-3.83C28.68 3.66 28.41 2 25 2ZM11.4 4.25A3.84 3.84 0 0 1 13 4a5.13 5.13 0 0 1 4.36 2c-3.72-.28-5.53-1.25-5.96-1.75ZM20.64 6A5.15 5.15 0 0 1 25 4a3.84 3.84 0 0 1 1.6.25c-.43.5-2.24 1.47-5.96 1.75Z" fill="#004cfd" class="fill-d9e1e8"></path><rect height="18" rx="1" ry="1" width="22" x="5" y="12" fill="#004cfd" class="fill-4bb1f7"></rect><rect height="8" rx="1" ry="1" width="28" x="2" y="6" fill="#2893ea" class="fill-2893ea"></rect><path d="M22 13.22V30h-6V13.22A1.13 1.13 0 0 1 17 12h4a1.13 1.13 0 0 1 1 1.22Z" fill="#2893ea" class="fill-2893ea"></path><path d="M15 6h8v8h-8z" fill="#1a76d3" class="fill-1a76d3"></path></svg>